<svg width="NaN" height="NaN" xmlns="http://www.w3.org/2000/svg"><g fill-rule="evenodd"><path fill="#5c646c" d="M.873 1.212C.192 2.077.182 2.371.182 21.234c0 19.137.053 20.123 1.133 20.844.687.459 38.533.306 38.533-.156 0-.226-1.529-1.945-3.398-3.821l-3.399-3.41-1.851.175c-4.355.414-6.584-4.034-3.545-7.073 3.036-3.036 7.476-.795 7.094 3.582l-.163 1.874 3.444 3.433c4.932 4.915 4.52 6.436 4.41-16.259l-.092-18.816-.787-.637c-.724-.586-1.403-.637-8.495-.637h-7.709L20.632 5.05l-4.725 4.716.18 1.744c.394 3.82-3.244 6.139-6.509 4.148-4.06-2.475-1.016-9.112 3.538-7.714l1.197.367 3.473-3.481C22.555.049 22.97.333 11.216.333H1.563l-.69.879m31.479 6.935c4.591 1.918 2.577 8.599-2.447 8.116l-1.715-.164-6.088 6.125-6.087 6.125.114 1.805c.247 3.906-3.29 6.159-6.551 4.171-4.064-2.478-1.015-9.112 3.545-7.712l1.204.369 6.114-6.239 6.114-6.239-.197-1.502c-.47-3.581 2.767-6.203 5.994-4.855m-21.713 3.405c-.273 1.085.201 1.912 1.178 2.057.943.14 1.698-.491 1.698-1.416 0-1.685-2.476-2.237-2.876-.641m18.667 0c-.273 1.085.201 1.912 1.178 2.057.942.14 1.698-.491 1.698-1.416 0-1.685-2.476-2.237-2.876-.641M10.717 29.861c-.586 1.528.219 2.69 1.622 2.338.977-.245 1.463-1.618.839-2.37-.549-.661-2.203-.64-2.461.032m18.667 0c-.587 1.528.219 2.69 1.622 2.338.976-.245 1.463-1.618.839-2.37-.549-.661-2.203-.64-2.461.032m132.659 29.475c-1.523.474-1.518.424-1.523 14.696-.006 14.87-.09 14.249 2.015 14.747 3.233.765 3.98-.538 3.98-6.939 0-5.961.358-6.84 2.789-6.84 2.409 0 2.878 1.196 2.878 7.351v5.3l.902.591c1.175.77 3.541.73 4.431-.076.889-.803.997-10.267.15-13.117-1.462-4.924-6.79-6.809-10.047-3.552l-1.103 1.103v-6.126c0-7.16-.719-8.307-4.472-7.138m-137.12.516l-.741.519v13.596c0 14.941-.086 14.314 2.02 14.812 1.18.279 3.235-.345 3.642-1.105.734-1.371.43-26.915-.329-27.674-.83-.83-3.496-.916-4.592-.148m119.142-.169c-4.742.796-7.55 3.738-7.55 7.911 0 4.065 1.684 6.144 7.366 9.089 5.196 2.695 6.268 4.155 4.531 6.175-1.497 1.74-4.711 1.573-7.572-.395-3.454-2.376-6.818.458-4.317 3.638 3.748 4.765 14.951 3.78 17.739-1.56 2.722-5.211.098-10.123-7.353-13.764-3.968-1.939-4.669-2.637-4.265-4.246.464-1.848 4.373-2.483 7.371-1.198 2.548 1.093 3.836.57 4.299-1.744.415-2.078-1.149-3.286-5.03-3.886-2.651-.409-2.896-.41-5.219-.02m-142.8.481l-1.083.47v27.4l1.156.483c.89.372 2.836.483 8.463.483 8.536 0 8.901-.112 8.834-2.697-.065-2.445-.571-2.636-6.99-2.636H6.182v-7h3.092c3.792 0 4.574-.399 4.574-2.334 0-1.934-.782-2.333-4.574-2.333H6.182v-7h5.463c6.443 0 7.022-.22 7.022-2.667 0-2.562-.358-2.668-8.939-2.653-5.6.01-7.641.126-8.463.484m79.25 2.268l-1.167.401v11.226c0 12.816-.094 12.375 2.97 13.91 2.161 1.083 6.73 1.217 7.826.229 1.936-1.745.517-4.223-2.551-4.455-2.626-.198-2.745-.421-2.745-5.14v-3.936h2.477c2.914 0 3.523-.404 3.523-2.334 0-1.93-.609-2.333-3.523-2.333h-2.477v-3.488c0-2.984-.084-3.533-.583-3.794-1.097-.575-2.583-.688-3.75-.286m-37.333 7.551c-8.228 1.824-10.048 14.204-2.649 18.02 4.942 2.548 13.878.495 12.621-2.9-.573-1.55-1.68-1.875-3.681-1.083-3.513 1.391-6.546.578-7.271-1.949L41.895 81l4.227-.002c6.553-.003 7.393-.42 7.393-3.676 0-4.812-5.17-8.484-10.333-7.339m21.73.028c-4.491.92-6.18 3.327-6.341 9.037-.129 4.572.583 6.815 2.654 8.363 4.824 3.606 15.297 1.079 12.44-3.001-.874-1.247-1.603-1.456-3.162-.906-4.224 1.491-5.988.311-5.988-4.004 0-4.272 1.729-5.467 5.875-4.062 2.107.714 3.458-.277 3.458-2.536 0-2.094-4.974-3.702-8.936-2.891m40.726.018c-.574.167-1.587.903-2.249 1.637-1.443 1.597-1.541 1.619-1.541.342 0-1.835-3.184-2.709-4.846-1.33-.803.665-.714 16.689.096 17.39 1.265 1.094 3.486 1.038 4.727-.118.627-.584.69-1.025.69-4.81 0-5.851 1.268-8.14 4.508-8.14 2.018 0 2.977-.859 2.977-2.667 0-2.29-1.562-3.115-4.362-2.304m14.877-.046c-9.72 2.155-9.638 16.982.106 19.004 7.215 1.498 12.932-6.349 10.075-13.83-1.366-3.575-6.234-6.049-10.181-5.174m70 0c-9.72 2.155-9.638 16.982.106 19.004 7.215 1.498 12.932-6.349 10.075-13.83-1.366-3.575-6.234-6.049-10.181-5.174m25.92.15c-1.588.577-2.904 1.437-3.14 2.053-.102.264-.327.481-.502.481s-.221-.157-.102-.348c.751-1.216-1.866-2.553-3.872-1.977-1.648.472-1.627.299-1.632 13.523-.006 13.577-.079 13.085 2.015 13.581 3.171.75 3.98-.571 3.98-6.504v-4.769l.844.911c5.005 5.398 11.43.554 11.093-8.362-.248-6.551-4.02-10.282-8.684-8.589M46.886 74.687c.773.414 1.361 1.756 1.084 2.477-.152.396-.825.503-3.184.503h-2.991l.22-1.084c.402-1.977 2.901-2.95 4.871-1.896m77.012.673c.912.488 1.617 2.294 1.617 4.14 0 5.131-5.33 6.452-6.162 1.527-.723-4.28 1.638-7.223 4.545-5.667m70 0c.912.488 1.617 2.294 1.617 4.14 0 5.131-5.33 6.452-6.162 1.527-.723-4.28 1.638-7.223 4.545-5.667m24.349.536c2.37 2.27.883 8.104-2.065 8.104-2.152 0-3-1.294-3-4.578 0-4.219 2.514-5.97 5.065-3.526"/><path fill="#5c5c6c" d="M11.182.247c8.452.081 9.546.153 9.916.652.23.309.417.413.417.231 0-1.045-.829-1.13-10.317-1.052L1.682.156l9.5.091m9.245 4.674c-2.701 2.706-4.912 5.005-4.912 5.108 0 .103 2.203-2.033 4.896-4.748L25.308.345 32.995.25l7.687-.096-7.671-.077L25.34 0l-4.913 4.921M17.612 5c-1.823 1.833-3.225 3.333-3.116 3.333.109 0 1.693-1.5 3.519-3.333 1.826-1.833 3.229-3.333 3.116-3.333-.112 0-1.696 1.5-3.519 3.333M.004 21.333c0 10.542.043 14.855.094 9.584a1177.5 1177.5 0 0 0 0-19.167c-.051-5.271-.094-.958-.094 9.583M10.515 7.996c-.34.217-.075.253.833.114 1.648-.253 1.929-.445.639-.438-.534.003-1.197.148-1.472.324m18.667 0c-.341.217-.075.253.833.114 1.648-.253 1.928-.445.639-.438-.535.003-1.197.148-1.472.324m3.166.394c.367.204.899.536 1.183.74.284.203.163.032-.268-.38-.432-.413-.964-.745-1.183-.74-.219.006-.098.177.268.38m-4.97.969c-.475.564-.858 1.201-.853 1.417.006.215.176.091.379-.276s.674-1.004 1.048-1.417c.374-.412.591-.75.484-.75-.107 0-.583.462-1.058 1.026m-15.53 1.218c1.122.206 1.659.694 1.706 1.547.032.599.063.615.196.101.22-.854-.839-1.9-1.87-1.846l-.865.045.833.153m18.667 0c.458.085 1.058.327 1.333.538.435.335.441.309.043-.198-.252-.322-.851-.563-1.333-.538l-.876.045.833.153m-20.131.617c-.356.927-.219 1.712.381 2.182.529.415.541.403.125-.127-.284-.363-.382-.963-.258-1.583.215-1.075.081-1.33-.248-.472m18.667 0c-.356.927-.219 1.712.381 2.182.529.415.54.403.125-.127-.285-.363-.383-.963-.259-1.583.215-1.075.082-1.33-.247-.472m5.49 1.697c-.037 1.039-1.569 2.719-2.804 3.077-.58.168-.778.319-.44.335 1.518.074 3.926-2.478 3.457-3.665-.118-.298-.196-.205-.213.253m-18.693.195c0 .855-1.634 2.551-2.777 2.882-.581.168-.779.319-.441.335 1.418.07 4.203-2.763 3.454-3.512-.13-.13-.236.003-.236.295m-7.99.423c-.016.563.973 1.794 1.757 2.185.61.304.586.234-.148-.414-.484-.429-1.042-1.08-1.24-1.447-.197-.366-.363-.512-.369-.324m18.701.324c-.026.367-1.181 1.845-2.567 3.284-1.386 1.44-2.465 2.673-2.398 2.74.416.416 5.301-5.162 5.162-5.894-.121-.641-.159-.667-.197-.13m.023 3.556c-.971.929-1.712 1.743-1.647 1.809.066.066.847-.618 1.736-1.52 1.422-1.444 1.739-1.617 2.646-1.445 1.203.229 1.092-.046-.135-.336-.68-.16-1.16.115-2.6 1.492m-7.016 4.157c-.614.642-1.054 1.229-.978 1.304.075.076.72-.459 1.433-1.189.713-.73 1.153-1.317.978-1.305-.174.013-.819.548-1.433 1.19m-.438 3.128c-1.895 2.02-3.504 3.858-3.575 4.083-.071.225-.071.33 0 .232s1.851-1.935 3.957-4.083C21.615 22.758 23.166 21 22.956 21c-.209 0-1.932 1.653-3.828 3.674m-3.14.526c-2.217 2.356-1.806 2.33.527-.033.996-1.009 1.666-1.819 1.489-1.8-.177.018-1.085.843-2.016 1.833m-5.473 1.462c-.34.217-.075.254.833.115 1.648-.253 1.929-.445.639-.439-.534.003-1.197.149-1.472.324m18.667 0c-.341.217-.075.254.833.115 1.648-.253 1.928-.445.639-.439-.535.003-1.197.149-1.472.324m3.166.395c.367.203.899.536 1.183.74.284.203.163.032-.268-.38-.432-.413-.964-.746-1.183-.74-.219.005-.098.176.268.38m-4.97.969c-.475.564-.858 1.201-.853 1.416.006.215.176.091.379-.275.203-.367.674-1.005 1.048-1.417.374-.412.591-.75.484-.75-.107 0-.583.462-1.058 1.026m-15.471 1.21c1.876.287 2.125 2.398.359 3.043-.578.211-.702.345-.334.361.754.034 1.916-1.131 1.916-1.922 0-.855-1.06-1.728-2.026-1.668-.761.047-.756.058.085.186m18.608.008c.458.084 1.058.326 1.333.538.435.335.441.309.043-.199-.252-.321-.851-.563-1.333-.538l-.876.046.833.153m-20.131.617c-.356.926-.219 1.711.381 2.182.529.414.541.402.125-.127-.284-.363-.382-.963-.258-1.583.215-1.075.081-1.33-.248-.472m18.667 0c-.356.926-.219 1.711.381 2.182.529.414.54.402.125-.127-.285-.363-.383-.963-.259-1.583.215-1.075.082-1.33-.247-.472m3.001 1.278c-.118.471-.583.944-1.12 1.14-.577.211-.701.345-.334.361.704.032 1.917-1.111 1.917-1.807 0-.755-.236-.6-.463.306m-16.204.613c0 .856-1.634 2.551-2.777 2.882-.581.168-.779.319-.441.336 1.418.069 4.203-2.763 3.454-3.512-.13-.13-.236.003-.236.294m-7.99.424c-.016.563.973 1.793 1.757 2.184.61.305.586.235-.148-.414-.484-.429-1.042-1.079-1.24-1.446-.197-.367-.363-.513-.369-.324m18.667 0c-.017.563.973 1.793 1.757 2.184.61.305.585.235-.148-.414-.485-.429-1.043-1.079-1.24-1.446-.197-.367-.363-.513-.369-.324m11.157 4.491C39.508 38.5 41.077 40 41.169 40c.092 0-1.328-1.5-3.154-3.333-1.826-1.834-3.396-3.334-3.487-3.334-.092 0 1.327 1.5 3.154 3.334m-5-2.013c.366.153 2.204 1.847 4.083 3.764 1.879 1.917 3.417 3.392 3.417 3.278 0-.459-7.213-7.361-7.672-7.342-.318.014-.257.121.172.3M1.468 42.419c.139.139 8.869.214 19.4.167l19.147-.086-19.4-.167c-10.67-.091-19.286-.053-19.147.086m23.259 17.272l-.879.691v27.181l.75.635c.75.635.75.635.167-.058-.535-.635-.583-1.822-.583-14.209 0-15.306-.199-14.264 2.795-14.629l1.705-.208-1.539-.047c-1.103-.034-1.786.148-2.416.644m136.121-.024c-.645.645-.666 1.111-.666 14.281v13.615l.75.635c.749.635.749.635.166-.058-.534-.635-.583-1.816-.578-14.166.005-14.214.001-14.171 1.523-14.626.821-.245.855-.295.222-.319-.412-.016-1.05.271-1.417.638m3.982-.299c.449.179.981.432 1.183.562.202.13.081-.026-.269-.347-.35-.321-.882-.573-1.183-.562-.345.013-.246.141.269.347m-20.898.195c.32.084.845.084 1.166 0 .321-.084.059-.152-.583-.152-.642 0-.904.068-.583.152m4.333 0c.321.084.846.084 1.167 0 .32-.084.058-.152-.584-.152-.641 0-.904.068-.583.152M.662 60.185c-.637.51-.636.514.02.212.366-.169.891-.39 1.166-.492.432-.16.43-.189-.019-.212-.286-.014-.811.207-1.167.492m17.112.001c.408.285.753.772.767 1.083.018.377.085.42.201.128.192-.479-.787-1.73-1.353-1.73-.196 0-.022.233.385.519m134.962.459c.579.354 1.212.916 1.406 1.249.194.333.357.432.363.219.012-.468-1.883-2.114-2.432-2.112-.215.001.083.291.663.644m-12.934.375l-.787.686 1-.585c1.316-.771 1.336-.788.926-.788-.194 0-.706.309-1.139.687M0 74.333c0 7.425.044 10.463.098 6.75a562.52 562.52 0 0 0 0-13.5C.044 63.871 0 66.908 0 74.333m166.586-7.578l-.071 5.922.917-1.019c.504-.561 1.516-1.231 2.25-1.491.733-.259 1.063-.478.733-.486-.774-.019-2.315.781-2.924 1.516-.418.504-.498-.096-.655-4.894l-.179-5.47-.071 5.922m-28.469-4.505c-.587.684-1.027 1.417-.851 1.417.068 0 .456-.45.863-1 .803-1.087.796-1.357-.012-.417m-54.602.185l1.167.398.184 3.667.184 3.667.066-3.565c.071-3.842-.29-4.633-2.092-4.583-.432.012-.256.162.491.416m-4.267.298c-.449.45-.586 21.457-.145 22.153.135.212.202-4.586.149-10.662-.089-10.156-.05-11.081.48-11.469.317-.232.428-.422.247-.422-.182 0-.511.18-.731.4m-60.707.665c-.014.31-.359.798-.767 1.083-.407.285-.581.519-.385.519.566 0 1.545-1.252 1.353-1.731-.116-.291-.183-.248-.201.129m128.668 1.387c.077.066.664.216 1.306.333.821.151 1.018.117.667-.113-.452-.297-2.303-.502-1.973-.22m6.217.548c-.314.367-.898.667-1.297.667-.399 0-.632.093-.518.207.38.38 1.881-.207 2.239-.878.452-.844.301-.843-.424.004M6.306 68.5c.001 2.017.056 2.799.122 1.738a33.453 33.453 0 0 0-.001-3.667c-.067-.956-.121-.088-.121 1.929m129.976-.833c0 1.008.062 1.421.138.916a7.301 7.301 0 0 0 0-1.833c-.076-.504-.138-.092-.138.917m6.278-.584c-.06 1.219 3.468 4.182 4.157 3.492.076-.075-.455-.405-1.18-.732-1.596-.72-2.579-1.724-2.781-2.843-.147-.817-.151-.815-.196.083m-73.962 2.813c.321.084.846.084 1.167 0 .321-.083.058-.152-.583-.152-.642 0-.905.069-.584.152m146.834.295c-.505.273-.917.572-.917.665 0 .092.329-.008.731-.224a10.468 10.468 0 0 1 1.583-.649c.667-.203.707-.262.186-.274-.367-.009-1.079.208-1.583.482m-153.34.501c-1.19.629-3.244 3.007-3.244 3.757 0 .191.452-.364 1.004-1.234.748-1.181 1.446-1.788 2.75-2.395.96-.448 1.521-.808 1.246-.802-.275.006-1.065.31-1.756.674m28.233-.168c.295.295.523 1.085.523 1.809 0 .725-.228 1.515-.523 1.81-.289.288-.369.524-.179.524.521 0 1.036-1.16 1.036-2.334 0-1.174-.515-2.333-1.036-2.333-.19 0-.11.236.179.524m10.782-.005c.481.336.741.864.741 1.5 0 .54.13.981.287.981.431 0 .033-1.749-.549-2.417-.279-.321-.668-.583-.863-.583-.196 0-.023.234.384.519m2.39.731l-1.149 1.25 1.33-1.167c.731-.641 1.394-1.204 1.472-1.25.079-.046-.003-.083-.181-.083s-.84.563-1.472 1.25m70.881-.619c.567.345 1.441 1.132 1.944 1.748.503.617.757.804.566.417-.432-.875-2.587-2.796-3.135-2.795-.222.001.059.284.625.63m-124.696.317c.979.599 1.982 1.556 3.024 2.885.349.445.321.296-.084-.445-.597-1.095-2.903-3.056-3.589-3.053-.193 0 .099.276.649.613m22.333-.225c.367.204.899.537 1.183.74.284.204.163.033-.269-.38-.431-.412-.964-.745-1.183-.74-.219.006-.098.177.269.38m24.567.01c-.672.672-.558 16.728.123 17.41.731.73 1.035.658.362-.086-.707-.78-.845-16.63-.152-17.324.22-.22.325-.4.233-.4-.091 0-.346.18-.566.4m-57.933 1.333c-1.44 1.327-2.688 3.158-2.37 3.476.08.08.336-.313.569-.873.232-.561 1.168-1.691 2.08-2.511.913-.82 1.565-1.491 1.449-1.491-.116 0-.893.629-1.728 1.399m77.263.15l-1.564 1.549 1.667-1.439a188.94 188.94 0 0 1 1.806-1.549c.076-.061.03-.11-.103-.11s-.946.697-1.806 1.549m10.936-1.485c2.132 1.983 3.393 2.963 2.334 1.813-.642-.696-1.467-1.423-1.834-1.617-.366-.193-.591-.281-.5-.196m20.361.06c.343.307 2.306 1.209 2.306 1.059 0-.192-1.848-1.183-2.206-1.183-.131 0-.176.056-.1.124m38.703 1.425l-1.564 1.549 1.667-1.439a188.94 188.94 0 0 1 1.806-1.549c.076-.061.03-.11-.103-.11s-.946.697-1.806 1.549m10.936-1.485c2.132 1.983 3.393 2.963 2.334 1.813-.642-.696-1.467-1.423-1.834-1.617-.366-.193-.591-.281-.5-.196m10.203.463c-.112.29-.203 6.042-.203 12.782V96.23l.75.635.75.635-.595-.706c-.552-.655-.588-1.621-.5-13.417.053-6.991.074-12.711.048-12.71-.027 0-.139.237-.25.527m14.797-.423c0 .057.488.545 1.084 1.083l1.083.979-.979-1.083c-.913-1.01-1.188-1.237-1.188-.979m-8.666 1.062c-.431.459-.645.829-.475.823.285-.009 1.659-1.656 1.382-1.656-.069 0-.477.375-.907.833m-75.997-.084c-.006.411 2.387 2.927 3.135 3.296.382.188.214-.051-.375-.532a15.13 15.13 0 0 1-1.913-1.943c-.464-.589-.845-.958-.847-.821m-124.078.77c1.042.73 1.042 2.899 0 3.629-.407.285-.58.519-.384.519.702 0 1.459-1.241 1.459-2.392 0-1.102-.783-2.275-1.517-2.275-.164 0 .035.234.442.519m137.408.024c.458.326 1.486 1.256 2.284 2.066.797.81 1.298 1.192 1.112.849-.452-.833-1.995-2.239-3.229-2.94-.978-.556-.982-.555-.167.025m-76.621.39c-.025.422-.275 1.209-.554 1.75-.28.541-.434.984-.342.984.39 0 1.212-2.106 1.083-2.773-.139-.712-.143-.711-.187.039m39.944 1.752c-.201.377-.317.833-.256 1.015.06.181.282-.128.492-.686.438-1.16.307-1.343-.236-.329m16.742.065c.233.412.512 2.4.621 4.417l.199 3.666.057-3.26C131.51 76.576 131 74 130.354 74c-.108 0-.006.338.226.75m53.258-.065c-.201.377-.317.833-.256 1.015.06.181.282-.128.492-.686.438-1.16.307-1.343-.236-.329m16.742.065c.233.412.512 2.4.621 4.417l.199 3.666.057-3.26C201.51 76.576 201 74 200.354 74c-.108 0-.006.338.226.75m-157.657.102c-.408.286-.741.689-.741.897 0 .208.187.13.416-.173.23-.303.792-.697 1.25-.876.459-.178.605-.334.325-.346-.281-.011-.843.213-1.25.498m3.259-.152c.458.179 1.021.573 1.25.876.229.303.416.381.416.173 0-.489-1.332-1.422-1.991-1.395-.28.012-.134.168.325.346m131.536.467c.275 1.225.465 1.491.459.639-.003-.352-.158-.864-.344-1.139-.247-.365-.278-.231-.115.5m-92.741 3.5c0 2.291.053 3.229.118 2.083a44.547 44.547 0 0 0 0-4.167c-.065-1.145-.118-.208-.118 2.084m19.611-2.75c-.516.504-.631.663-.256.353a6.855 6.855 0 0 1 1.517-.896c.573-.228.653-.338.255-.353-.318-.011-1.001.391-1.516.896m15.745-.099c-.45.45-.813 1.013-.806 1.25.006.238.219.058.472-.399s.885-1.013 1.405-1.235c.631-.27.746-.409.346-.419-.329-.008-.967.353-1.417.803m2.96-.384c.52.222 1.152.778 1.405 1.235.253.457.465.637.472.399.017-.639-1.533-2.07-2.223-2.053-.4.01-.286.149.346.419m46.555-.199c.275.101.875.502 1.334.891l.833.707-.808-.916c-.445-.505-1.045-.905-1.333-.891-.45.023-.454.053-.026.209m20.485.583c-.45.45-.813 1.013-.806 1.25.006.238.219.058.472-.399s.885-1.013 1.405-1.235c.631-.27.746-.409.346-.419-.329-.008-.967.353-1.417.803m2.96-.384c.52.222 1.152.778 1.405 1.235.253.457.465.637.472.399.017-.639-1.533-2.07-2.223-2.053-.4.01-.286.149.346.419m20.707.384c-1.912 1.912-.547 8.924 1.572 8.078.322-.129.3-.184-.082-.203-2.493-.125-2.929-7.163-.508-8.217.648-.282.81-.455.435-.463-.33-.007-.967.355-1.417.805m2.848-.583c.816.299 1.998 1.508 2.027 2.073.019.382.074.405.203.082.221-.554-1.504-2.399-2.209-2.364-.449.023-.451.052-.021.209m-75.666.263c0 .225 2.707 1.572 2.858 1.421.07-.069-.545-.453-1.366-.852-.821-.399-1.492-.655-1.492-.569m25.852.576c-.424.605-.507 1.693-.452 5.917l.067 5.176.183-5.367c.131-3.835.314-5.524.64-5.917.252-.302.373-.55.269-.55-.103 0-.422.334-.707.741M53.615 77.333c0 1.009.062 1.421.139.917a7.397 7.397 0 0 0 0-1.833c-.077-.505-.139-.092-.139.916m-17.701 2c-.063 4.322.535 5.913 2.94 7.825.46.366.29.07-.383-.666-1.888-2.066-2.097-2.686-2.309-6.825l-.197-3.834-.051 3.5m22.392.167c.001 2.017.056 2.799.122 1.738a33.453 33.453 0 0 0-.001-3.667c-.067-.956-.121-.088-.121 1.929m54.997 0c.001 1.833.057 2.541.125 1.572.067-.968.067-2.468-.002-3.333-.068-.865-.123-.072-.123 1.761m70 0c.001 1.833.057 2.541.125 1.572.067-.968.067-2.468-.002-3.333-.068-.865-.123-.072-.123 1.761m42 0c.001 1.833.057 2.541.125 1.572.067-.968.067-2.468-.002-3.333-.068-.865-.123-.072-.123 1.761m-218.997.667c.001 2.016.056 2.798.122 1.737.067-1.06.066-2.71-.001-3.666s-.121-.088-.121 1.929m171.95 1.807c-.063 4.607-.164 5.572-.639 6.097-.531.587-.531.611.003.407.835-.321.93-1.115.814-6.811l-.104-5.167-.074 5.474m-6.273.193c.001 2.933.052 4.088.114 2.567a77.068 77.068 0 0 0-.001-5.333c-.063-1.412-.113-.168-.113 2.766M125.285 79.5c.002 1.1.064 1.51.138.911.074-.599.073-1.499-.003-2-.076-.501-.137-.011-.135 1.089m20.563-1.73c0 .078.638.562 1.417 1.076s1.241.721 1.026.461c-.414-.501-2.443-1.777-2.443-1.537m49.437 1.73c.002 1.1.064 1.51.138.911.074-.599.073-1.499-.003-2-.076-.501-.137-.011-.135 1.089m-92.562-.987c-.114.298-.191.942-.17 1.431.029.666.104.555.299-.444.276-1.417.215-1.883-.129-.987m16.554.987c.003.917.067 1.252.144.745.076-.506.074-1.256-.005-1.666-.079-.41-.141.004-.139.921m70 0c.003.917.067 1.252.144.745.076-.506.074-1.256-.005-1.666-.079-.41-.141.004-.139.921m-52.704 2.271c-.399.425-.725.908-.725 1.075 0 .166.241-.042.536-.462.295-.421.857-.895 1.25-1.053.477-.193.54-.296.189-.31-.289-.011-.851.326-1.25.75m2.775-.246c.549.287 1.224.713 1.5.947.626.534 1.334.942 1.334.771 0-.28-2.969-2.243-3.388-2.241-.245.001.004.237.554.523m79.527.167c-.029.565-1.211 1.774-2.027 2.073-.43.157-.428.186.021.209.705.035 2.43-1.81 2.209-2.364-.129-.323-.184-.3-.203.082m-99.348.24c-.018.639 1.532 2.07 2.223 2.053.4-.01.285-.149-.346-.419-.52-.222-1.152-.778-1.405-1.235-.253-.457-.466-.637-.472-.399m5.145.431c-.121.383-.694.902-1.272 1.153-.652.284-.824.463-.453.471.64.014 2.235-1.393 2.235-1.972s-.275-.392-.51.348m64.855-.431c-.018.639 1.532 2.07 2.223 2.053.4-.01.285-.149-.346-.419-.52-.222-1.152-.778-1.405-1.235-.253-.457-.466-.637-.472-.399m5.145.431c-.121.383-.694.902-1.272 1.153-.652.284-.824.463-.453.471.64.014 2.235-1.393 2.235-1.972s-.275-.392-.51.348M73.12 83.927c.492.51.958.884 1.035.832.192-.13-1.361-1.759-1.677-1.759-.14 0 .149.417.642.927m-20.817.097c.483.38.891.943.905 1.25.018.383.082.421.202.119.184-.46-1.109-2.06-1.665-2.06-.176 0 .075.311.558.691m83.25.081c-.061 1.514 2.342 4.228 3.744 4.228.192 0-.338-.435-1.177-.967-1.756-1.114-1.982-1.411-2.298-3.021-.208-1.062-.234-1.086-.269-.24m7.295-.454c.275.187.788.341 1.139.344.853.007.587-.184-.639-.458-.73-.164-.865-.133-.5.114m-125.074.535c.408.285.758.847.78 1.25.031.6.066.622.196.123.163-.634-.742-1.892-1.361-1.892-.196 0-.022.233.385.519m30.241-.01c-.733.242-1.033.444-.667.45.367.006 1.117-.195 1.667-.447 1.26-.577.746-.579-1-.003m41.167-.273c.275.101.8.427 1.166.724.661.535.662.533.032-.21-.349-.413-.874-.738-1.167-.724-.451.022-.456.054-.031.21m64.999.766c-.562 1.357-2.813 3.249-4.449 3.739-.723.216-1.156.446-.963.51 1.444.481 6.908-4.201 5.982-5.126-.08-.081-.337.314-.57.877m-39.713.535c.876 1.739 4.601 4.132 6.38 4.1.548-.01.314-.156-.683-.425a9.948 9.948 0 0 1-5.014-3.154c-.571-.674-.879-.908-.683-.521m15.097.466c-.998 1.35-3.077 2.683-4.984 3.197-1.003.27-1.267.427-.733.437 1.726.031 5.451-2.322 6.358-4.016.498-.93.196-.75-.641.382m54.903-.466c.876 1.739 4.601 4.132 6.38 4.1.548-.01.314-.156-.683-.425a9.948 9.948 0 0 1-5.014-3.154c-.571-.674-.879-.908-.683-.521m15.097.466c-.998 1.35-3.077 2.683-4.984 3.197-1.003.27-1.267.427-.733.437 1.726.031 5.451-2.322 6.358-4.016.498-.93.196-.75-.641.382m-108.639.663c0 .642.068.904.152.584a2.734 2.734 0 0 0 0-1.167c-.084-.321-.152-.058-.152.583m132.375.192c-.309.473-1.098 1.223-1.752 1.667-.654.444-1.065.808-.913.808.515 0 2.182-1.355 2.888-2.347.387-.542.621-.986.521-.986-.1 0-.434.386-.744.858m-170.263.068c-.112.354-.72.921-1.35 1.26-.631.34-1.085.679-1.011.754.075.075.654-.184 1.287-.576 1.069-.66 1.759-1.6 1.423-1.937-.08-.079-.236.145-.349.499m7.309.355c.363.429.962.935 1.331 1.124.708.362.605.25-.994-1.077-.962-.799-.974-.801-.337-.047m20.003.003c.72.851 2.206 1.723 2.898 1.703.239-.008-.09-.241-.731-.518-.64-.278-1.539-.835-1.997-1.237l-.834-.732.664.784M213.261 91l.058 4.833.196-4.5c.108-2.475.227-4.318.265-4.097.091.537 2.793 2.101 3.598 2.083.35-.008.073-.216-.616-.462-1.348-.481-2.072-.972-2.981-2.024-.551-.636-.575-.447-.52 4.167M73.665 87.027c-.123.198-.694.648-1.27.999-.576.351-.862.639-.635.639.426.002 2.766-1.971 2.358-1.989-.127-.005-.331.153-.453.351m-55.124.371c-.014.31-.359.798-.767 1.083-.407.285-.581.519-.385.519.566 0 1.545-1.252 1.353-1.731-.116-.291-.183-.248-.201.129m11.198.407c-.106.276-.687.644-1.292.818-.774.223-.888.326-.386.347.777.033 2.417-1.116 2.079-1.456-.115-.115-.296.016-.401.291m136.333 0c-.106.276-.687.644-1.291.818-.775.223-.889.326-.386.347.776.033 2.416-1.116 2.078-1.456-.115-.115-.295.016-.401.291m-75.738.218c-.121.197-.543.487-.936.646-.489.197-.547.295-.185.31.293.011.804-.279 1.135-.646.332-.366.514-.666.405-.666-.109 0-.298.16-.419.356m82.619.394c.35.32.882.573 1.182.562.346-.013.247-.141-.269-.347-.448-.179-.98-.432-1.182-.562-.202-.13-.081.026.269.347M.662 88.482c.356.285.881.506 1.167.492.449-.023.451-.052.019-.212-.275-.102-.8-.323-1.166-.492-.656-.302-.657-.298-.02.212M48.015 89l-1.333.239 1.166.024c.642.013 1.467-.105 1.834-.263.785-.338.218-.338-1.667 0m20.583.23c.321.084.846.084 1.167 0 .321-.084.058-.153-.583-.153-.642 0-.905.069-.584.153m74 0c.321.084.846.084 1.167 0 .321-.084.058-.153-.583-.153-.642 0-.905.069-.584.153m4 0c.321.084.846.084 1.167 0 .321-.084.058-.153-.583-.153-.642 0-.905.069-.584.153m66.141 7.242c-.106.275-.687.643-1.292.818-.774.223-.888.325-.386.347.777.032 2.417-1.116 2.079-1.456-.115-.115-.296.016-.401.291"/></g></svg>