<svg width="NaN" height="NaN" xmlns="http://www.w3.org/2000/svg">

 <g>
  <title>Layer 1</title>
  <g id="svg_4">
   <path fill-rule="evenodd" fill="#5c646c" d="m0.873,1.212c-0.681,0.865 -0.691,1.159 -0.691,20.022c0,19.137 0.053,20.123 1.133,20.844c0.687,0.459 38.533,0.306 38.533,-0.156c0,-0.226 -1.529,-1.945 -3.398,-3.821l-3.399,-3.41l-1.851,0.175c-4.355,0.414 -6.584,-4.034 -3.545,-7.073c3.036,-3.036 7.476,-0.795 7.094,3.582l-0.163,1.874l3.444,3.433c4.932,4.915 4.52,6.436 4.41,-16.259l-0.092,-18.816l-0.787,-0.637c-0.724,-0.586 -1.403,-0.637 -8.495,-0.637l-7.709,0l-4.725,4.717l-4.725,4.716l0.18,1.744c0.394,3.82 -3.244,6.139 -6.509,4.148c-4.06,-2.475 -1.016,-9.112 3.538,-7.714l1.197,0.367l3.473,-3.481c4.769,-4.781 5.184,-4.497 -6.57,-4.497l-9.653,0l-0.69,0.879m31.479,6.935c4.591,1.918 2.577,8.599 -2.447,8.116l-1.715,-0.164l-6.088,6.125l-6.087,6.125l0.114,1.805c0.247,3.906 -3.29,6.159 -6.551,4.171c-4.064,-2.478 -1.015,-9.112 3.545,-7.712l1.204,0.369l6.114,-6.239l6.114,-6.239l-0.197,-1.502c-0.47,-3.581 2.767,-6.203 5.994,-4.855m-21.713,3.405c-0.273,1.085 0.201,1.912 1.178,2.057c0.943,0.14 1.698,-0.491 1.698,-1.416c0,-1.685 -2.476,-2.237 -2.876,-0.641m18.667,0c-0.273,1.085 0.201,1.912 1.178,2.057c0.942,0.14 1.698,-0.491 1.698,-1.416c0,-1.685 -2.476,-2.237 -2.876,-0.641m-18.589,18.309c-0.586,1.528 0.219,2.69 1.622,2.338c0.977,-0.245 1.463,-1.618 0.839,-2.37c-0.549,-0.661 -2.203,-0.64 -2.461,0.032m18.667,0c-0.587,1.528 0.219,2.69 1.622,2.338c0.976,-0.245 1.463,-1.618 0.839,-2.37c-0.549,-0.661 -2.203,-0.64 -2.461,0.032m132.659,29.475c-1.523,0.474 -1.518,0.424 -1.523,14.696c-0.006,14.87 -0.09,14.249 2.015,14.747c3.233,0.765 3.98,-0.538 3.98,-6.939c0,-5.961 0.358,-6.84 2.789,-6.84c2.409,0 2.878,1.196 2.878,7.351l0,5.3l0.902,0.591c1.175,0.77 3.541,0.73 4.431,-0.076c0.889,-0.803 0.997,-10.267 0.15,-13.117c-1.462,-4.924 -6.79,-6.809 -10.047,-3.552l-1.103,1.103l0,-6.126c0,-7.16 -0.719,-8.307 -4.472,-7.138m-137.12,0.516l-0.741,0.519l0,13.596c0,14.941 -0.086,14.314 2.02,14.812c1.18,0.279 3.235,-0.345 3.642,-1.105c0.734,-1.371 0.43,-26.915 -0.329,-27.674c-0.83,-0.83 -3.496,-0.916 -4.592,-0.148m119.142,-0.169c-4.742,0.796 -7.55,3.738 -7.55,7.911c0,4.065 1.684,6.144 7.366,9.089c5.196,2.695 6.268,4.155 4.531,6.175c-1.497,1.74 -4.711,1.573 -7.572,-0.395c-3.454,-2.376 -6.818,0.458 -4.317,3.638c3.748,4.765 14.951,3.78 17.739,-1.56c2.722,-5.211 0.098,-10.123 -7.353,-13.764c-3.968,-1.939 -4.669,-2.637 -4.265,-4.246c0.464,-1.848 4.373,-2.483 7.371,-1.198c2.548,1.093 3.836,0.57 4.299,-1.744c0.415,-2.078 -1.149,-3.286 -5.03,-3.886c-2.651,-0.409 -2.896,-0.41 -5.219,-0.02m-142.8,0.481l-1.083,0.47l0,13.7l0,13.7l1.156,0.483c0.89,0.372 2.836,0.483 8.463,0.483c8.536,0 8.901,-0.112 8.834,-2.697c-0.065,-2.445 -0.571,-2.636 -6.99,-2.636l-5.463,0l0,-3.5l0,-3.5l3.092,0c3.792,0 4.574,-0.399 4.574,-2.334c0,-1.934 -0.782,-2.333 -4.574,-2.333l-3.092,0l0,-3.5l0,-3.5l5.463,0c6.443,0 7.022,-0.22 7.022,-2.667c0,-2.562 -0.358,-2.668 -8.939,-2.653c-5.6,0.01 -7.641,0.126 -8.463,0.484m79.25,2.268l-1.167,0.401l0,11.226c0,12.816 -0.094,12.375 2.97,13.91c2.161,1.083 6.73,1.217 7.826,0.229c1.936,-1.745 0.517,-4.223 -2.551,-4.455c-2.626,-0.198 -2.745,-0.421 -2.745,-5.14l0,-3.936l2.477,0c2.914,0 3.523,-0.404 3.523,-2.334c0,-1.93 -0.609,-2.333 -3.523,-2.333l-2.477,0l0,-3.488c0,-2.984 -0.084,-3.533 -0.583,-3.794c-1.097,-0.575 -2.583,-0.688 -3.75,-0.286m-37.333,7.551c-8.228,1.824 -10.048,14.204 -2.649,18.02c4.942,2.548 13.878,0.495 12.621,-2.9c-0.573,-1.55 -1.68,-1.875 -3.681,-1.083c-3.513,1.391 -6.546,0.578 -7.271,-1.949l-0.307,-1.071l4.227,-0.002c6.553,-0.003 7.393,-0.42 7.393,-3.676c0,-4.812 -5.17,-8.484 -10.333,-7.339m21.73,0.028c-4.491,0.92 -6.18,3.327 -6.341,9.037c-0.129,4.572 0.583,6.815 2.654,8.363c4.824,3.606 15.297,1.079 12.44,-3.001c-0.874,-1.247 -1.603,-1.456 -3.162,-0.906c-4.224,1.491 -5.988,0.311 -5.988,-4.004c0,-4.272 1.729,-5.467 5.875,-4.062c2.107,0.714 3.458,-0.277 3.458,-2.536c0,-2.094 -4.974,-3.702 -8.936,-2.891m40.726,0.018c-0.574,0.167 -1.587,0.903 -2.249,1.637c-1.443,1.597 -1.541,1.619 -1.541,0.342c0,-1.835 -3.184,-2.709 -4.846,-1.33c-0.803,0.665 -0.714,16.689 0.096,17.39c1.265,1.094 3.486,1.038 4.727,-0.118c0.627,-0.584 0.69,-1.025 0.69,-4.81c0,-5.851 1.268,-8.14 4.508,-8.14c2.018,0 2.977,-0.859 2.977,-2.667c0,-2.29 -1.562,-3.115 -4.362,-2.304m14.877,-0.046c-9.72,2.155 -9.638,16.982 0.106,19.004c7.215,1.498 12.932,-6.349 10.075,-13.83c-1.366,-3.575 -6.234,-6.049 -10.181,-5.174m70,0c-9.72,2.155 -9.638,16.982 0.106,19.004c7.215,1.498 12.932,-6.349 10.075,-13.83c-1.366,-3.575 -6.234,-6.049 -10.181,-5.174m25.92,0.15c-1.588,0.577 -2.904,1.437 -3.14,2.053c-0.102,0.264 -0.327,0.481 -0.502,0.481c-0.175,0 -0.221,-0.157 -0.102,-0.348c0.751,-1.216 -1.866,-2.553 -3.872,-1.977c-1.648,0.472 -1.627,0.299 -1.632,13.523c-0.006,13.577 -0.079,13.085 2.015,13.581c3.171,0.75 3.98,-0.571 3.98,-6.504l0,-4.769l0.844,0.911c5.005,5.398 11.43,0.554 11.093,-8.362c-0.248,-6.551 -4.02,-10.282 -8.684,-8.589m-169.549,4.554c0.773,0.414 1.361,1.756 1.084,2.477c-0.152,0.396 -0.825,0.503 -3.184,0.503l-2.991,0l0.22,-1.084c0.402,-1.977 2.901,-2.95 4.871,-1.896m77.012,0.673c0.912,0.488 1.617,2.294 1.617,4.14c0,5.131 -5.33,6.452 -6.162,1.527c-0.723,-4.28 1.638,-7.223 4.545,-5.667m70,0c0.912,0.488 1.617,2.294 1.617,4.14c0,5.131 -5.33,6.452 -6.162,1.527c-0.723,-4.28 1.638,-7.223 4.545,-5.667m24.349,0.536c2.37,2.27 0.883,8.104 -2.065,8.104c-2.152,0 -3,-1.294 -3,-4.578c0,-4.219 2.514,-5.97 5.065,-3.526" id="svg_2"/>
   <path fill-rule="evenodd" fill="#5c5c6c" d="m11.182,0.247c8.452,0.081 9.546,0.153 9.916,0.652c0.23,0.309 0.417,0.413 0.417,0.231c0,-1.045 -0.829,-1.13 -10.317,-1.052l-9.516,0.078l9.5,0.091m9.245,4.674c-2.701,2.706 -4.912,5.005 -4.912,5.108c0,0.103 2.203,-2.033 4.896,-4.748l4.897,-4.936l7.687,-0.095l7.687,-0.096l-7.671,-0.077l-7.671,-0.077l-4.913,4.921m-2.815,0.079c-1.823,1.833 -3.225,3.333 -3.116,3.333c0.109,0 1.693,-1.5 3.519,-3.333c1.826,-1.833 3.229,-3.333 3.116,-3.333c-0.112,0 -1.696,1.5 -3.519,3.333m-17.608,16.333c0,10.542 0.043,14.855 0.094,9.584c0.052,-5.271 0.052,-13.896 0,-19.167c-0.051,-5.271 -0.094,-0.958 -0.094,9.583m10.511,-13.337c-0.34,0.217 -0.075,0.253 0.833,0.114c1.648,-0.253 1.929,-0.445 0.639,-0.438c-0.534,0.003 -1.197,0.148 -1.472,0.324m18.667,0c-0.341,0.217 -0.075,0.253 0.833,0.114c1.648,-0.253 1.928,-0.445 0.639,-0.438c-0.535,0.003 -1.197,0.148 -1.472,0.324m3.166,0.394c0.367,0.204 0.899,0.536 1.183,0.74c0.284,0.203 0.163,0.032 -0.268,-0.38c-0.432,-0.413 -0.964,-0.745 -1.183,-0.74c-0.219,0.006 -0.098,0.177 0.268,0.38m-4.97,0.969c-0.475,0.564 -0.858,1.201 -0.853,1.417c0.006,0.215 0.176,0.091 0.379,-0.276c0.203,-0.367 0.674,-1.004 1.048,-1.417c0.374,-0.412 0.591,-0.75 0.484,-0.75c-0.107,0 -0.583,0.462 -1.058,1.026m-15.53,1.218c1.122,0.206 1.659,0.694 1.706,1.547c0.032,0.599 0.063,0.615 0.196,0.101c0.22,-0.854 -0.839,-1.9 -1.87,-1.846l-0.865,0.045l0.833,0.153m18.667,0c0.458,0.085 1.058,0.327 1.333,0.538c0.435,0.335 0.441,0.309 0.043,-0.198c-0.252,-0.322 -0.851,-0.563 -1.333,-0.538l-0.876,0.045l0.833,0.153m-20.131,0.617c-0.356,0.927 -0.219,1.712 0.381,2.182c0.529,0.415 0.541,0.403 0.125,-0.127c-0.284,-0.363 -0.382,-0.963 -0.258,-1.583c0.215,-1.075 0.081,-1.33 -0.248,-0.472m18.667,0c-0.356,0.927 -0.219,1.712 0.381,2.182c0.529,0.415 0.54,0.403 0.125,-0.127c-0.285,-0.363 -0.383,-0.963 -0.259,-1.583c0.215,-1.075 0.082,-1.33 -0.247,-0.472m5.49,1.697c-0.037,1.039 -1.569,2.719 -2.804,3.077c-0.58,0.168 -0.778,0.319 -0.44,0.335c1.518,0.074 3.926,-2.478 3.457,-3.665c-0.118,-0.298 -0.196,-0.205 -0.213,0.253m-18.693,0.195c0,0.855 -1.634,2.551 -2.777,2.882c-0.581,0.168 -0.779,0.319 -0.441,0.335c1.418,0.07 4.203,-2.763 3.454,-3.512c-0.13,-0.13 -0.236,0.003 -0.236,0.295m-7.99,0.423c-0.016,0.563 0.973,1.794 1.757,2.185c0.61,0.304 0.586,0.234 -0.148,-0.414c-0.484,-0.429 -1.042,-1.08 -1.24,-1.447c-0.197,-0.366 -0.363,-0.512 -0.369,-0.324m18.701,0.324c-0.026,0.367 -1.181,1.845 -2.567,3.284c-1.386,1.44 -2.465,2.673 -2.398,2.74c0.416,0.416 5.301,-5.162 5.162,-5.894c-0.121,-0.641 -0.159,-0.667 -0.197,-0.13m0.023,3.556c-0.971,0.929 -1.712,1.743 -1.647,1.809c0.066,0.066 0.847,-0.618 1.736,-1.52c1.422,-1.444 1.739,-1.617 2.646,-1.445c1.203,0.229 1.092,-0.046 -0.135,-0.336c-0.68,-0.16 -1.16,0.115 -2.6,1.492m-7.016,4.157c-0.614,0.642 -1.054,1.229 -0.978,1.304c0.075,0.076 0.72,-0.459 1.433,-1.189c0.713,-0.73 1.153,-1.317 0.978,-1.305c-0.174,0.013 -0.819,0.548 -1.433,1.19m-0.438,3.128c-1.895,2.02 -3.504,3.858 -3.575,4.083c-0.071,0.225 -0.071,0.33 0,0.232c0.071,-0.098 1.851,-1.935 3.957,-4.083c2.105,-2.148 3.656,-3.906 3.446,-3.906c-0.209,0 -1.932,1.653 -3.828,3.674m-3.14,0.526c-2.217,2.356 -1.806,2.33 0.527,-0.033c0.996,-1.009 1.666,-1.819 1.489,-1.8c-0.177,0.018 -1.085,0.843 -2.016,1.833m-5.473,1.462c-0.34,0.217 -0.075,0.254 0.833,0.115c1.648,-0.253 1.929,-0.445 0.639,-0.439c-0.534,0.003 -1.197,0.149 -1.472,0.324m18.667,0c-0.341,0.217 -0.075,0.254 0.833,0.115c1.648,-0.253 1.928,-0.445 0.639,-0.439c-0.535,0.003 -1.197,0.149 -1.472,0.324m3.166,0.395c0.367,0.203 0.899,0.536 1.183,0.74c0.284,0.203 0.163,0.032 -0.268,-0.38c-0.432,-0.413 -0.964,-0.746 -1.183,-0.74c-0.219,0.005 -0.098,0.176 0.268,0.38m-4.97,0.969c-0.475,0.564 -0.858,1.201 -0.853,1.416c0.006,0.215 0.176,0.091 0.379,-0.275c0.203,-0.367 0.674,-1.005 1.048,-1.417c0.374,-0.412 0.591,-0.75 0.484,-0.75c-0.107,0 -0.583,0.462 -1.058,1.026m-15.471,1.21c1.876,0.287 2.125,2.398 0.359,3.043c-0.578,0.211 -0.702,0.345 -0.334,0.361c0.754,0.034 1.916,-1.131 1.916,-1.922c0,-0.855 -1.06,-1.728 -2.026,-1.668c-0.761,0.047 -0.756,0.058 0.085,0.186m18.608,0.008c0.458,0.084 1.058,0.326 1.333,0.538c0.435,0.335 0.441,0.309 0.043,-0.199c-0.252,-0.321 -0.851,-0.563 -1.333,-0.538l-0.876,0.046l0.833,0.153m-20.131,0.617c-0.356,0.926 -0.219,1.711 0.381,2.182c0.529,0.414 0.541,0.402 0.125,-0.127c-0.284,-0.363 -0.382,-0.963 -0.258,-1.583c0.215,-1.075 0.081,-1.33 -0.248,-0.472m18.667,0c-0.356,0.926 -0.219,1.711 0.381,2.182c0.529,0.414 0.54,0.402 0.125,-0.127c-0.285,-0.363 -0.383,-0.963 -0.259,-1.583c0.215,-1.075 0.082,-1.33 -0.247,-0.472m3.001,1.278c-0.118,0.471 -0.583,0.944 -1.12,1.14c-0.577,0.211 -0.701,0.345 -0.334,0.361c0.704,0.032 1.917,-1.111 1.917,-1.807c0,-0.755 -0.236,-0.6 -0.463,0.306m-16.204,0.613c0,0.856 -1.634,2.551 -2.777,2.882c-0.581,0.168 -0.779,0.319 -0.441,0.336c1.418,0.069 4.203,-2.763 3.454,-3.512c-0.13,-0.13 -0.236,0.003 -0.236,0.294m-7.99,0.424c-0.016,0.563 0.973,1.793 1.757,2.184c0.61,0.305 0.586,0.235 -0.148,-0.414c-0.484,-0.429 -1.042,-1.079 -1.24,-1.446c-0.197,-0.367 -0.363,-0.513 -0.369,-0.324m18.667,0c-0.017,0.563 0.973,1.793 1.757,2.184c0.61,0.305 0.585,0.235 -0.148,-0.414c-0.485,-0.429 -1.043,-1.079 -1.24,-1.446c-0.197,-0.367 -0.363,-0.513 -0.369,-0.324m11.157,4.491c1.826,1.833 3.395,3.333 3.487,3.333c0.092,0 -1.328,-1.5 -3.154,-3.333c-1.826,-1.834 -3.396,-3.334 -3.487,-3.334c-0.092,0 1.327,1.5 3.154,3.334m-5,-2.013c0.366,0.153 2.204,1.847 4.083,3.764c1.879,1.917 3.417,3.392 3.417,3.278c0,-0.459 -7.213,-7.361 -7.672,-7.342c-0.318,0.014 -0.257,0.121 0.172,0.3m-31.214,7.765c0.139,0.139 8.869,0.214 19.4,0.167l19.147,-0.086l-19.4,-0.167c-10.67,-0.091 -19.286,-0.053 -19.147,0.086m23.259,17.272l-0.879,0.691l0,13.591l0,13.59l0.75,0.635c0.75,0.635 0.75,0.635 0.167,-0.058c-0.535,-0.635 -0.583,-1.822 -0.583,-14.209c0,-15.306 -0.199,-14.264 2.795,-14.629l1.705,-0.208l-1.539,-0.047c-1.103,-0.034 -1.786,0.148 -2.416,0.644m136.121,-0.024c-0.645,0.645 -0.666,1.111 -0.666,14.281l0,13.615l0.75,0.635c0.749,0.635 0.749,0.635 0.166,-0.058c-0.534,-0.635 -0.583,-1.816 -0.578,-14.166c0.005,-14.214 0.001,-14.171 1.523,-14.626c0.821,-0.245 0.855,-0.295 0.222,-0.319c-0.412,-0.016 -1.05,0.271 -1.417,0.638m3.982,-0.299c0.449,0.179 0.981,0.432 1.183,0.562c0.202,0.13 0.081,-0.026 -0.269,-0.347c-0.35,-0.321 -0.882,-0.573 -1.183,-0.562c-0.345,0.013 -0.246,0.141 0.269,0.347m-20.898,0.195c0.32,0.084 0.845,0.084 1.166,0c0.321,-0.084 0.059,-0.152 -0.583,-0.152c-0.642,0 -0.904,0.068 -0.583,0.152m4.333,0c0.321,0.084 0.846,0.084 1.167,0c0.32,-0.084 0.058,-0.152 -0.584,-0.152c-0.641,0 -0.904,0.068 -0.583,0.152m-147.603,0.622c-0.637,0.51 -0.636,0.514 0.02,0.212c0.366,-0.169 0.891,-0.39 1.166,-0.492c0.432,-0.16 0.43,-0.189 -0.019,-0.212c-0.286,-0.014 -0.811,0.207 -1.167,0.492m17.112,0.001c0.408,0.285 0.753,0.772 0.767,1.083c0.018,0.377 0.085,0.42 0.201,0.128c0.192,-0.479 -0.787,-1.73 -1.353,-1.73c-0.196,0 -0.022,0.233 0.385,0.519m134.962,0.459c0.579,0.354 1.212,0.916 1.406,1.249c0.194,0.333 0.357,0.432 0.363,0.219c0.012,-0.468 -1.883,-2.114 -2.432,-2.112c-0.215,0.001 0.083,0.291 0.663,0.644m-12.934,0.375l-0.787,0.686l1,-0.585c1.316,-0.771 1.336,-0.788 0.926,-0.788c-0.194,0 -0.706,0.309 -1.139,0.687m-139.802,13.313c0,7.425 0.044,10.463 0.098,6.75c0.054,-3.712 0.054,-9.787 0,-13.5c-0.054,-3.712 -0.098,-0.675 -0.098,6.75m166.586,-7.578l-0.071,5.922l0.917,-1.019c0.504,-0.561 1.516,-1.231 2.25,-1.491c0.733,-0.259 1.063,-0.478 0.733,-0.486c-0.774,-0.019 -2.315,0.781 -2.924,1.516c-0.418,0.504 -0.498,-0.096 -0.655,-4.894l-0.179,-5.47l-0.071,5.922m-28.469,-4.505c-0.587,0.684 -1.027,1.417 -0.851,1.417c0.068,0 0.456,-0.45 0.863,-1c0.803,-1.087 0.796,-1.357 -0.012,-0.417m-54.602,0.185l1.167,0.398l0.184,3.667l0.184,3.667l0.066,-3.565c0.071,-3.842 -0.29,-4.633 -2.092,-4.583c-0.432,0.012 -0.256,0.162 0.491,0.416m-4.267,0.298c-0.449,0.45 -0.586,21.457 -0.145,22.153c0.135,0.212 0.202,-4.586 0.149,-10.662c-0.089,-10.156 -0.05,-11.081 0.48,-11.469c0.317,-0.232 0.428,-0.422 0.247,-0.422c-0.182,0 -0.511,0.18 -0.731,0.4m-60.707,0.665c-0.014,0.31 -0.359,0.798 -0.767,1.083c-0.407,0.285 -0.581,0.519 -0.385,0.519c0.566,0 1.545,-1.252 1.353,-1.731c-0.116,-0.291 -0.183,-0.248 -0.201,0.129m128.668,1.387c0.077,0.066 0.664,0.216 1.306,0.333c0.821,0.151 1.018,0.117 0.667,-0.113c-0.452,-0.297 -2.303,-0.502 -1.973,-0.22m6.217,0.548c-0.314,0.367 -0.898,0.667 -1.297,0.667c-0.399,0 -0.632,0.093 -0.518,0.207c0.38,0.38 1.881,-0.207 2.239,-0.878c0.452,-0.844 0.301,-0.843 -0.424,0.004m-147.12,3.167c0.001,2.017 0.056,2.799 0.122,1.738c0.067,-1.061 0.066,-2.711 -0.001,-3.667c-0.067,-0.956 -0.121,-0.088 -0.121,1.929m129.976,-0.833c0,1.008 0.062,1.421 0.138,0.916c0.077,-0.504 0.077,-1.329 0,-1.833c-0.076,-0.504 -0.138,-0.092 -0.138,0.917m6.278,-0.584c-0.06,1.219 3.468,4.182 4.157,3.492c0.076,-0.075 -0.455,-0.405 -1.18,-0.732c-1.596,-0.72 -2.579,-1.724 -2.781,-2.843c-0.147,-0.817 -0.151,-0.815 -0.196,0.083m-73.962,2.813c0.321,0.084 0.846,0.084 1.167,0c0.321,-0.083 0.058,-0.152 -0.583,-0.152c-0.642,0 -0.905,0.069 -0.584,0.152m146.834,0.295c-0.505,0.273 -0.917,0.572 -0.917,0.665c0,0.092 0.329,-0.008 0.731,-0.224c0.401,-0.215 1.114,-0.507 1.583,-0.649c0.667,-0.203 0.707,-0.262 0.186,-0.274c-0.367,-0.009 -1.079,0.208 -1.583,0.482m-153.34,0.501c-1.19,0.629 -3.244,3.007 -3.244,3.757c0,0.191 0.452,-0.364 1.004,-1.234c0.748,-1.181 1.446,-1.788 2.75,-2.395c0.96,-0.448 1.521,-0.808 1.246,-0.802c-0.275,0.006 -1.065,0.31 -1.756,0.674m28.233,-0.168c0.295,0.295 0.523,1.085 0.523,1.809c0,0.725 -0.228,1.515 -0.523,1.81c-0.289,0.288 -0.369,0.524 -0.179,0.524c0.521,0 1.036,-1.16 1.036,-2.334c0,-1.174 -0.515,-2.333 -1.036,-2.333c-0.19,0 -0.11,0.236 0.179,0.524m10.782,-0.005c0.481,0.336 0.741,0.864 0.741,1.5c0,0.54 0.13,0.981 0.287,0.981c0.431,0 0.033,-1.749 -0.549,-2.417c-0.279,-0.321 -0.668,-0.583 -0.863,-0.583c-0.196,0 -0.023,0.234 0.384,0.519m2.39,0.731l-1.149,1.25l1.33,-1.167c0.731,-0.641 1.394,-1.204 1.472,-1.25c0.079,-0.046 -0.003,-0.083 -0.181,-0.083c-0.178,0 -0.84,0.563 -1.472,1.25m70.881,-0.619c0.567,0.345 1.441,1.132 1.944,1.748c0.503,0.617 0.757,0.804 0.566,0.417c-0.432,-0.875 -2.587,-2.796 -3.135,-2.795c-0.222,0.001 0.059,0.284 0.625,0.63m-124.696,0.317c0.979,0.599 1.982,1.556 3.024,2.885c0.349,0.445 0.321,0.296 -0.084,-0.445c-0.597,-1.095 -2.903,-3.056 -3.589,-3.053c-0.193,0 0.099,0.276 0.649,0.613m22.333,-0.225c0.367,0.204 0.899,0.537 1.183,0.74c0.284,0.204 0.163,0.033 -0.269,-0.38c-0.431,-0.412 -0.964,-0.745 -1.183,-0.74c-0.219,0.006 -0.098,0.177 0.269,0.38m24.567,0.01c-0.672,0.672 -0.558,16.728 0.123,17.41c0.731,0.73 1.035,0.658 0.362,-0.086c-0.707,-0.78 -0.845,-16.63 -0.152,-17.324c0.22,-0.22 0.325,-0.4 0.233,-0.4c-0.091,0 -0.346,0.18 -0.566,0.4m-57.933,1.333c-1.44,1.327 -2.688,3.158 -2.37,3.476c0.08,0.08 0.336,-0.313 0.569,-0.873c0.232,-0.561 1.168,-1.691 2.08,-2.511c0.913,-0.82 1.565,-1.491 1.449,-1.491c-0.116,0 -0.893,0.629 -1.728,1.399m77.263,0.15l-1.564,1.549l1.667,-1.439c0.917,-0.792 1.729,-1.489 1.806,-1.549c0.076,-0.061 0.03,-0.11 -0.103,-0.11c-0.133,0 -0.946,0.697 -1.806,1.549m10.936,-1.485c2.132,1.983 3.393,2.963 2.334,1.813c-0.642,-0.696 -1.467,-1.423 -1.834,-1.617c-0.366,-0.193 -0.591,-0.281 -0.5,-0.196m20.361,0.06c0.343,0.307 2.306,1.209 2.306,1.059c0,-0.192 -1.848,-1.183 -2.206,-1.183c-0.131,0 -0.176,0.056 -0.1,0.124m38.703,1.425l-1.564,1.549l1.667,-1.439c0.917,-0.792 1.729,-1.489 1.806,-1.549c0.076,-0.061 0.03,-0.11 -0.103,-0.11c-0.133,0 -0.946,0.697 -1.806,1.549m10.936,-1.485c2.132,1.983 3.393,2.963 2.334,1.813c-0.642,-0.696 -1.467,-1.423 -1.834,-1.617c-0.366,-0.193 -0.591,-0.281 -0.5,-0.196m10.203,0.463c-0.112,0.29 -0.203,6.042 -0.203,12.782l0,12.254l0.75,0.635l0.75,0.635l-0.595,-0.706c-0.552,-0.655 -0.588,-1.621 -0.5,-13.417c0.053,-6.991 0.074,-12.711 0.048,-12.71c-0.027,0 -0.139,0.237 -0.25,0.527m14.797,-0.423c0,0.057 0.488,0.545 1.084,1.083l1.083,0.979l-0.979,-1.083c-0.913,-1.01 -1.188,-1.237 -1.188,-0.979m-8.666,1.062c-0.431,0.459 -0.645,0.829 -0.475,0.823c0.285,-0.009 1.659,-1.656 1.382,-1.656c-0.069,0 -0.477,0.375 -0.907,0.833m-75.997,-0.084c-0.006,0.411 2.387,2.927 3.135,3.296c0.382,0.188 0.214,-0.051 -0.375,-0.532c-0.588,-0.48 -1.449,-1.355 -1.913,-1.943c-0.464,-0.589 -0.845,-0.958 -0.847,-0.821m-124.078,0.77c1.042,0.73 1.042,2.899 0,3.629c-0.407,0.285 -0.58,0.519 -0.384,0.519c0.702,0 1.459,-1.241 1.459,-2.392c0,-1.102 -0.783,-2.275 -1.517,-2.275c-0.164,0 0.035,0.234 0.442,0.519m137.408,0.024c0.458,0.326 1.486,1.256 2.284,2.066c0.797,0.81 1.298,1.192 1.112,0.849c-0.452,-0.833 -1.995,-2.239 -3.229,-2.94c-0.978,-0.556 -0.982,-0.555 -0.167,0.025m-76.621,0.39c-0.025,0.422 -0.275,1.209 -0.554,1.75c-0.28,0.541 -0.434,0.984 -0.342,0.984c0.39,0 1.212,-2.106 1.083,-2.773c-0.139,-0.712 -0.143,-0.711 -0.187,0.039m39.944,1.752c-0.201,0.377 -0.317,0.833 -0.256,1.015c0.06,0.181 0.282,-0.128 0.492,-0.686c0.438,-1.16 0.307,-1.343 -0.236,-0.329m16.742,0.065c0.233,0.412 0.512,2.4 0.621,4.417l0.199,3.666l0.057,-3.26c0.053,-2.997 -0.457,-5.573 -1.103,-5.573c-0.108,0 -0.006,0.338 0.226,0.75m53.258,-0.065c-0.201,0.377 -0.317,0.833 -0.256,1.015c0.06,0.181 0.282,-0.128 0.492,-0.686c0.438,-1.16 0.307,-1.343 -0.236,-0.329m16.742,0.065c0.233,0.412 0.512,2.4 0.621,4.417l0.199,3.666l0.057,-3.26c0.053,-2.997 -0.457,-5.573 -1.103,-5.573c-0.108,0 -0.006,0.338 0.226,0.75m-157.657,0.102c-0.408,0.286 -0.741,0.689 -0.741,0.897c0,0.208 0.187,0.13 0.416,-0.173c0.23,-0.303 0.792,-0.697 1.25,-0.876c0.459,-0.178 0.605,-0.334 0.325,-0.346c-0.281,-0.011 -0.843,0.213 -1.25,0.498m3.259,-0.152c0.458,0.179 1.021,0.573 1.25,0.876c0.229,0.303 0.416,0.381 0.416,0.173c0,-0.489 -1.332,-1.422 -1.991,-1.395c-0.28,0.012 -0.134,0.168 0.325,0.346m131.536,0.467c0.275,1.225 0.465,1.491 0.459,0.639c-0.003,-0.352 -0.158,-0.864 -0.344,-1.139c-0.247,-0.365 -0.278,-0.231 -0.115,0.5m-92.741,3.5c0,2.291 0.053,3.229 0.118,2.083c0.065,-1.146 0.065,-3.021 0,-4.167c-0.065,-1.145 -0.118,-0.208 -0.118,2.084m19.611,-2.75c-0.516,0.504 -0.631,0.663 -0.256,0.353c0.376,-0.31 1.058,-0.713 1.517,-0.896c0.573,-0.228 0.653,-0.338 0.255,-0.353c-0.318,-0.011 -1.001,0.391 -1.516,0.896m15.745,-0.099c-0.45,0.45 -0.813,1.013 -0.806,1.25c0.006,0.238 0.219,0.058 0.472,-0.399c0.253,-0.457 0.885,-1.013 1.405,-1.235c0.631,-0.27 0.746,-0.409 0.346,-0.419c-0.329,-0.008 -0.967,0.353 -1.417,0.803m2.96,-0.384c0.52,0.222 1.152,0.778 1.405,1.235c0.253,0.457 0.465,0.637 0.472,0.399c0.017,-0.639 -1.533,-2.07 -2.223,-2.053c-0.4,0.01 -0.286,0.149 0.346,0.419m46.555,-0.199c0.275,0.101 0.875,0.502 1.334,0.891l0.833,0.707l-0.808,-0.916c-0.445,-0.505 -1.045,-0.905 -1.333,-0.891c-0.45,0.023 -0.454,0.053 -0.026,0.209m20.485,0.583c-0.45,0.45 -0.813,1.013 -0.806,1.25c0.006,0.238 0.219,0.058 0.472,-0.399c0.253,-0.457 0.885,-1.013 1.405,-1.235c0.631,-0.27 0.746,-0.409 0.346,-0.419c-0.329,-0.008 -0.967,0.353 -1.417,0.803m2.96,-0.384c0.52,0.222 1.152,0.778 1.405,1.235c0.253,0.457 0.465,0.637 0.472,0.399c0.017,-0.639 -1.533,-2.07 -2.223,-2.053c-0.4,0.01 -0.286,0.149 0.346,0.419m20.707,0.384c-1.912,1.912 -0.547,8.924 1.572,8.078c0.322,-0.129 0.3,-0.184 -0.082,-0.203c-2.493,-0.125 -2.929,-7.163 -0.508,-8.217c0.648,-0.282 0.81,-0.455 0.435,-0.463c-0.33,-0.007 -0.967,0.355 -1.417,0.805m2.848,-0.583c0.816,0.299 1.998,1.508 2.027,2.073c0.019,0.382 0.074,0.405 0.203,0.082c0.221,-0.554 -1.504,-2.399 -2.209,-2.364c-0.449,0.023 -0.451,0.052 -0.021,0.209m-75.666,0.263c0,0.225 2.707,1.572 2.858,1.421c0.07,-0.069 -0.545,-0.453 -1.366,-0.852c-0.821,-0.399 -1.492,-0.655 -1.492,-0.569m25.852,0.576c-0.424,0.605 -0.507,1.693 -0.452,5.917l0.067,5.176l0.183,-5.367c0.131,-3.835 0.314,-5.524 0.64,-5.917c0.252,-0.302 0.373,-0.55 0.269,-0.55c-0.103,0 -0.422,0.334 -0.707,0.741m-113.419,1.259c0,1.009 0.062,1.421 0.139,0.917c0.076,-0.504 0.076,-1.329 0,-1.833c-0.077,-0.505 -0.139,-0.092 -0.139,0.916m-17.701,2c-0.063,4.322 0.535,5.913 2.94,7.825c0.46,0.366 0.29,0.07 -0.383,-0.666c-1.888,-2.066 -2.097,-2.686 -2.309,-6.825l-0.197,-3.834l-0.051,3.5m22.392,0.167c0.001,2.017 0.056,2.799 0.122,1.738c0.067,-1.061 0.066,-2.711 -0.001,-3.667c-0.067,-0.956 -0.121,-0.088 -0.121,1.929m54.997,0c0.001,1.833 0.057,2.541 0.125,1.572c0.067,-0.968 0.067,-2.468 -0.002,-3.333c-0.068,-0.865 -0.123,-0.072 -0.123,1.761m70,0c0.001,1.833 0.057,2.541 0.125,1.572c0.067,-0.968 0.067,-2.468 -0.002,-3.333c-0.068,-0.865 -0.123,-0.072 -0.123,1.761m42,0c0.001,1.833 0.057,2.541 0.125,1.572c0.067,-0.968 0.067,-2.468 -0.002,-3.333c-0.068,-0.865 -0.123,-0.072 -0.123,1.761m-218.997,0.667c0.001,2.016 0.056,2.798 0.122,1.737c0.067,-1.06 0.066,-2.71 -0.001,-3.666c-0.067,-0.956 -0.121,-0.088 -0.121,1.929m171.95,1.807c-0.063,4.607 -0.164,5.572 -0.639,6.097c-0.531,0.587 -0.531,0.611 0.003,0.407c0.835,-0.321 0.93,-1.115 0.814,-6.811l-0.104,-5.167l-0.074,5.474m-6.273,0.193c0.001,2.933 0.052,4.088 0.114,2.567c0.061,-1.521 0.061,-3.921 -0.001,-5.333c-0.063,-1.412 -0.113,-0.168 -0.113,2.766m-46.698,-2.667c0.002,1.1 0.064,1.51 0.138,0.911c0.074,-0.599 0.073,-1.499 -0.003,-2c-0.076,-0.501 -0.137,-0.011 -0.135,1.089m20.563,-1.73c0,0.078 0.638,0.562 1.417,1.076c0.779,0.514 1.241,0.721 1.026,0.461c-0.414,-0.501 -2.443,-1.777 -2.443,-1.537m49.437,1.73c0.002,1.1 0.064,1.51 0.138,0.911c0.074,-0.599 0.073,-1.499 -0.003,-2c-0.076,-0.501 -0.137,-0.011 -0.135,1.089m-92.562,-0.987c-0.114,0.298 -0.191,0.942 -0.17,1.431c0.029,0.666 0.104,0.555 0.299,-0.444c0.276,-1.417 0.215,-1.883 -0.129,-0.987m16.554,0.987c0.003,0.917 0.067,1.252 0.144,0.745c0.076,-0.506 0.074,-1.256 -0.005,-1.666c-0.079,-0.41 -0.141,0.004 -0.139,0.921m70,0c0.003,0.917 0.067,1.252 0.144,0.745c0.076,-0.506 0.074,-1.256 -0.005,-1.666c-0.079,-0.41 -0.141,0.004 -0.139,0.921m-52.704,2.271c-0.399,0.425 -0.725,0.908 -0.725,1.075c0,0.166 0.241,-0.042 0.536,-0.462c0.295,-0.421 0.857,-0.895 1.25,-1.053c0.477,-0.193 0.54,-0.296 0.189,-0.31c-0.289,-0.011 -0.851,0.326 -1.25,0.75m2.775,-0.246c0.549,0.287 1.224,0.713 1.5,0.947c0.626,0.534 1.334,0.942 1.334,0.771c0,-0.28 -2.969,-2.243 -3.388,-2.241c-0.245,0.001 0.004,0.237 0.554,0.523m79.527,0.167c-0.029,0.565 -1.211,1.774 -2.027,2.073c-0.43,0.157 -0.428,0.186 0.021,0.209c0.705,0.035 2.43,-1.81 2.209,-2.364c-0.129,-0.323 -0.184,-0.3 -0.203,0.082m-99.348,0.24c-0.018,0.639 1.532,2.07 2.223,2.053c0.4,-0.01 0.285,-0.149 -0.346,-0.419c-0.52,-0.222 -1.152,-0.778 -1.405,-1.235c-0.253,-0.457 -0.466,-0.637 -0.472,-0.399m5.145,0.431c-0.121,0.383 -0.694,0.902 -1.272,1.153c-0.652,0.284 -0.824,0.463 -0.453,0.471c0.64,0.014 2.235,-1.393 2.235,-1.972c0,-0.579 -0.275,-0.392 -0.51,0.348m64.855,-0.431c-0.018,0.639 1.532,2.07 2.223,2.053c0.4,-0.01 0.285,-0.149 -0.346,-0.419c-0.52,-0.222 -1.152,-0.778 -1.405,-1.235c-0.253,-0.457 -0.466,-0.637 -0.472,-0.399m5.145,0.431c-0.121,0.383 -0.694,0.902 -1.272,1.153c-0.652,0.284 -0.824,0.463 -0.453,0.471c0.64,0.014 2.235,-1.393 2.235,-1.972c0,-0.579 -0.275,-0.392 -0.51,0.348m-121.552,1.564c0.492,0.51 0.958,0.884 1.035,0.832c0.192,-0.13 -1.361,-1.759 -1.677,-1.759c-0.14,0 0.149,0.417 0.642,0.927m-20.817,0.097c0.483,0.38 0.891,0.943 0.905,1.25c0.018,0.383 0.082,0.421 0.202,0.119c0.184,-0.46 -1.109,-2.06 -1.665,-2.06c-0.176,0 0.075,0.311 0.558,0.691m83.25,0.081c-0.061,1.514 2.342,4.228 3.744,4.228c0.192,0 -0.338,-0.435 -1.177,-0.967c-1.756,-1.114 -1.982,-1.411 -2.298,-3.021c-0.208,-1.062 -0.234,-1.086 -0.269,-0.24m7.295,-0.454c0.275,0.187 0.788,0.341 1.139,0.344c0.853,0.007 0.587,-0.184 -0.639,-0.458c-0.73,-0.164 -0.865,-0.133 -0.5,0.114m-125.074,0.535c0.408,0.285 0.758,0.847 0.78,1.25c0.031,0.6 0.066,0.622 0.196,0.123c0.163,-0.634 -0.742,-1.892 -1.361,-1.892c-0.196,0 -0.022,0.233 0.385,0.519m30.241,-0.01c-0.733,0.242 -1.033,0.444 -0.667,0.45c0.367,0.006 1.117,-0.195 1.667,-0.447c1.26,-0.577 0.746,-0.579 -1,-0.003m41.167,-0.273c0.275,0.101 0.8,0.427 1.166,0.724c0.661,0.535 0.662,0.533 0.032,-0.21c-0.349,-0.413 -0.874,-0.738 -1.167,-0.724c-0.451,0.022 -0.456,0.054 -0.031,0.21m64.999,0.766c-0.562,1.357 -2.813,3.249 -4.449,3.739c-0.723,0.216 -1.156,0.446 -0.963,0.51c1.444,0.481 6.908,-4.201 5.982,-5.126c-0.08,-0.081 -0.337,0.314 -0.57,0.877m-39.713,0.535c0.876,1.739 4.601,4.132 6.38,4.1c0.548,-0.01 0.314,-0.156 -0.683,-0.425c-1.977,-0.533 -3.724,-1.632 -5.014,-3.154c-0.571,-0.674 -0.879,-0.908 -0.683,-0.521m15.097,0.466c-0.998,1.35 -3.077,2.683 -4.984,3.197c-1.003,0.27 -1.267,0.427 -0.733,0.437c1.726,0.031 5.451,-2.322 6.358,-4.016c0.498,-0.93 0.196,-0.75 -0.641,0.382m54.903,-0.466c0.876,1.739 4.601,4.132 6.38,4.1c0.548,-0.01 0.314,-0.156 -0.683,-0.425c-1.977,-0.533 -3.724,-1.632 -5.014,-3.154c-0.571,-0.674 -0.879,-0.908 -0.683,-0.521m15.097,0.466c-0.998,1.35 -3.077,2.683 -4.984,3.197c-1.003,0.27 -1.267,0.427 -0.733,0.437c1.726,0.031 5.451,-2.322 6.358,-4.016c0.498,-0.93 0.196,-0.75 -0.641,0.382m-108.639,0.663c0,0.642 0.068,0.904 0.152,0.584c0.084,-0.321 0.084,-0.846 0,-1.167c-0.084,-0.321 -0.152,-0.058 -0.152,0.583m132.375,0.192c-0.309,0.473 -1.098,1.223 -1.752,1.667c-0.654,0.444 -1.065,0.808 -0.913,0.808c0.515,0 2.182,-1.355 2.888,-2.347c0.387,-0.542 0.621,-0.986 0.521,-0.986c-0.1,0 -0.434,0.386 -0.744,0.858m-170.263,0.068c-0.112,0.354 -0.72,0.921 -1.35,1.26c-0.631,0.34 -1.085,0.679 -1.011,0.754c0.075,0.075 0.654,-0.184 1.287,-0.576c1.069,-0.66 1.759,-1.6 1.423,-1.937c-0.08,-0.079 -0.236,0.145 -0.349,0.499m7.309,0.355c0.363,0.429 0.962,0.935 1.331,1.124c0.708,0.362 0.605,0.25 -0.994,-1.077c-0.962,-0.799 -0.974,-0.801 -0.337,-0.047m20.003,0.003c0.72,0.851 2.206,1.723 2.898,1.703c0.239,-0.008 -0.09,-0.241 -0.731,-0.518c-0.64,-0.278 -1.539,-0.835 -1.997,-1.237l-0.834,-0.732l0.664,0.784m132.911,4.049l0.058,4.833l0.196,-4.5c0.108,-2.475 0.227,-4.318 0.265,-4.097c0.091,0.537 2.793,2.101 3.598,2.083c0.35,-0.008 0.073,-0.216 -0.616,-0.462c-1.348,-0.481 -2.072,-0.972 -2.981,-2.024c-0.551,-0.636 -0.575,-0.447 -0.52,4.167m-139.596,-3.973c-0.123,0.198 -0.694,0.648 -1.27,0.999c-0.576,0.351 -0.862,0.639 -0.635,0.639c0.426,0.002 2.766,-1.971 2.358,-1.989c-0.127,-0.005 -0.331,0.153 -0.453,0.351m-55.124,0.371c-0.014,0.31 -0.359,0.798 -0.767,1.083c-0.407,0.285 -0.581,0.519 -0.385,0.519c0.566,0 1.545,-1.252 1.353,-1.731c-0.116,-0.291 -0.183,-0.248 -0.201,0.129m11.198,0.407c-0.106,0.276 -0.687,0.644 -1.292,0.818c-0.774,0.223 -0.888,0.326 -0.386,0.347c0.777,0.033 2.417,-1.116 2.079,-1.456c-0.115,-0.115 -0.296,0.016 -0.401,0.291m136.333,0c-0.106,0.276 -0.687,0.644 -1.291,0.818c-0.775,0.223 -0.889,0.326 -0.386,0.347c0.776,0.033 2.416,-1.116 2.078,-1.456c-0.115,-0.115 -0.295,0.016 -0.401,0.291m-75.738,0.218c-0.121,0.197 -0.543,0.487 -0.936,0.646c-0.489,0.197 -0.547,0.295 -0.185,0.31c0.293,0.011 0.804,-0.279 1.135,-0.646c0.332,-0.366 0.514,-0.666 0.405,-0.666c-0.109,0 -0.298,0.16 -0.419,0.356m82.619,0.394c0.35,0.32 0.882,0.573 1.182,0.562c0.346,-0.013 0.247,-0.141 -0.269,-0.347c-0.448,-0.179 -0.98,-0.432 -1.182,-0.562c-0.202,-0.13 -0.081,0.026 0.269,0.347m-172.291,0.065c0.356,0.285 0.881,0.506 1.167,0.492c0.449,-0.023 0.451,-0.052 0.019,-0.212c-0.275,-0.102 -0.8,-0.323 -1.166,-0.492c-0.656,-0.302 -0.657,-0.298 -0.02,0.212m47.353,0.518l-1.333,0.239l1.166,0.024c0.642,0.013 1.467,-0.105 1.834,-0.263c0.785,-0.338 0.218,-0.338 -1.667,0m20.583,0.23c0.321,0.084 0.846,0.084 1.167,0c0.321,-0.084 0.058,-0.153 -0.583,-0.153c-0.642,0 -0.905,0.069 -0.584,0.153m74,0c0.321,0.084 0.846,0.084 1.167,0c0.321,-0.084 0.058,-0.153 -0.583,-0.153c-0.642,0 -0.905,0.069 -0.584,0.153m4,0c0.321,0.084 0.846,0.084 1.167,0c0.321,-0.084 0.058,-0.153 -0.583,-0.153c-0.642,0 -0.905,0.069 -0.584,0.153m66.141,7.242c-0.106,0.275 -0.687,0.643 -1.292,0.818c-0.774,0.223 -0.888,0.325 -0.386,0.347c0.777,0.032 2.417,-1.116 2.079,-1.456c-0.115,-0.115 -0.296,0.016 -0.401,0.291" id="svg_3"/>
  </g>
 </g>
</svg>