<svg width="510" height="510" xmlns="http://www.w3.org/2000/svg">

 <g>
  <title>background</title>
  <rect fill="none" id="canvas_background" height="402" width="582" y="-1" x="-1"/>
 </g>
 <g>
  <title>Layer 1</title>
  <path id="svg_1" d="m153,408c-28.05,0 -51,22.95 -51,51s22.95,51 51,51s51,-22.95 51,-51s-22.95,-51 -51,-51zm-153,-408l0,51l51,0l91.8,193.8l-35.7,61.2c-2.55,7.65 -5.1,17.85 -5.1,25.5c0,28.05 22.95,51 51,51l306,0l0,-51l-295.8,0c-2.55,0 -5.1,-2.55 -5.1,-5.1l0,-2.551l22.95,-43.35l188.7,0c20.4,0 35.7,-10.2 43.35,-25.5l91.8,-165.749c5.1,-5.1 5.1,-7.65 5.1,-12.75c0,-15.3 -10.2,-25.5 -25.5,-25.5l-377.4,0l-22.95,-51l-84.15,0zm408,408c-28.05,0 -51,22.95 -51,51s22.95,51 51,51s51,-22.95 51,-51s-22.95,-51 -51,-51z" fill="#5C646C"/>
  <path id="svg_2" d="m189.65249,129.781925l61.801648,0l0,-61.801627l63.39676,0l0,61.801627l61.801654,0l0,63.396738l-61.801654,0l0,61.801621l-63.39676,0l0,-61.801621l-61.801648,0l0,-63.396738z" stroke-width="1.5" stroke="#000" fill="#fff"/>
 </g>
</svg>